<?xml version="1.0" encoding="utf-8"?>
<!-- Generator: Adobe Illustrator 25.4.1, SVG Export Plug-In . SVG Version: 6.00 Build 0)  -->
<svg version="1.1" id="Layer_1" xmlns="http://www.w3.org/2000/svg" xmlns:xlink="http://www.w3.org/1999/xlink" x="0px" y="0px"
	 viewBox="0 0 3.33 3.33" style="enable-background:new 0 0 3.33 3.33;" xml:space="preserve">
<style type="text/css">
	.st0{fill:#FFFFFF;}
</style>
<path class="st0" d="M10.08,1.17L9.22,0.41C9.2,0.4,9.19,0.39,9.17,0.39c-0.02,0-0.03,0.01-0.04,0.02l-0.3,0.4
	C8.81,0.84,8.82,0.87,8.84,0.89L8.9,0.95L7.91,1.48C7.89,1.49,7.88,1.51,7.88,1.53c0.01,0.08,0.06,0.81-0.23,1.19
	C7.63,2.75,7.64,2.78,7.66,2.8L7.8,2.93c0.01,0.01,0.02,0.01,0.04,0.01c0.01,0,0.03,0,0.04-0.01c0.36-0.32,1.11-0.34,1.19-0.35
	c0.02,0,0.04-0.01,0.05-0.03l0.44-1.02l0.06,0.06l0,0C9.64,1.59,9.65,1.6,9.66,1.6c0.01,0,0.03,0,0.04-0.01l0.38-0.34
	c0.01-0.01,0.02-0.03,0.02-0.04C10.1,1.19,10.09,1.18,10.08,1.17z M9.05,2.49C8.89,2.5,8.21,2.54,7.84,2.84L7.83,2.83l0.59-0.64
	c0.03,0.02,0.07,0.03,0.1,0.03c0,0,0.01,0,0.01,0c0.05,0,0.11-0.03,0.14-0.07C8.71,2.11,8.73,2.05,8.72,2
	c0-0.05-0.03-0.11-0.07-0.14C8.62,1.82,8.56,1.8,8.51,1.8c-0.05,0-0.11,0.03-0.14,0.07C8.33,1.91,8.31,1.96,8.31,2.02
	c0,0.04,0.01,0.07,0.04,0.11L7.76,2.76L7.74,2.75c0.27-0.39,0.24-1.05,0.23-1.2l1-0.53l0.51,0.45L9.05,2.49z M8.4,2.01
	c0-0.03,0.01-0.06,0.03-0.08C8.45,1.91,8.48,1.9,8.51,1.89c0,0,0,0,0.01,0c0.03,0,0.06,0.01,0.08,0.03C8.62,1.94,8.63,1.97,8.63,2
	c0,0.03-0.01,0.06-0.03,0.08h0C8.58,2.11,8.56,2.12,8.53,2.12c-0.03,0-0.06-0.01-0.08-0.03C8.42,2.07,8.41,2.05,8.4,2.01z M9.66,1.5
	L8.92,0.85L9.18,0.5l0.8,0.71L9.66,1.5z"/>
<path class="st0" d="M-1.67,0.39H-3.2c-0.03,0-0.05,0.02-0.05,0.05v0.09h-0.12c-0.03,0-0.05,0.02-0.05,0.05v0.07h-0.09
	c-0.05,0-0.1,0.04-0.1,0.1v0.42c0,0.04,0.02,0.07,0.05,0.09l1.05,0.54c0.02,0.01,0.03,0.03,0.03,0.05v0.19h-0.08
	c-0.03,0-0.05,0.02-0.05,0.05v0.78c0,0.03,0.02,0.05,0.05,0.05h0.25c0.03,0,0.05-0.02,0.05-0.05V2.11c0-0.03-0.02-0.05-0.05-0.05
	h-0.08V1.86c0-0.06-0.03-0.11-0.08-0.14l-1.05-0.54c0,0,0,0,0-0.01V0.76c0,0,0-0.01,0.01-0.01h0.09v0.07c0,0.03,0.02,0.05,0.05,0.05
	h0.12v0.09c0,0.03,0.02,0.05,0.05,0.05h1.53c0.03,0,0.05-0.02,0.05-0.05V0.45C-1.61,0.42-1.64,0.39-1.67,0.39z M-2.35,2.85h-0.18
	V2.14h0.18V2.85z M-3.34,0.79V0.63h0.08v0.16H-3.34z M-1.7,0.93h-1.46V0.88V0.54V0.48h1.46V0.93z"/>
<g>
	<g>
		<polygon class="st0" points="1.12,2.39 0.39,1.66 1.13,0.92 1.33,1.13 0.8,1.66 1.32,2.18 		"/>
	</g>
	<g>
		<polygon class="st0" points="2.22,2.39 2.01,2.18 2.53,1.66 2,1.13 2.21,0.92 2.94,1.66 		"/>
	</g>
	<g>
		
			<rect x="0.83" y="1.59" transform="matrix(0.2705 -0.9627 0.9627 0.2705 -0.4013 2.8038)" class="st0" width="1.64" height="0.15"/>
	</g>
</g>
</svg>
