<?xml version="1.0" encoding="utf-8"?>
<!-- Generator: Adobe Illustrator 25.4.1, SVG Export Plug-In . SVG Version: 6.00 Build 0)  -->
<svg version="1.1" id="Layer_1" xmlns="http://www.w3.org/2000/svg" xmlns:xlink="http://www.w3.org/1999/xlink" x="0px" y="0px"
	 viewBox="0 0 3.33 3.33" style="enable-background:new 0 0 3.33 3.33;" xml:space="preserve">
<style type="text/css">
	.st0{fill:#FFFFFF;}
</style>
<path class="st0" d="M2.88,1.17L2.01,0.41C2,0.4,1.99,0.39,1.97,0.39c-0.02,0-0.03,0.01-0.04,0.02l-0.3,0.4
	C1.61,0.84,1.62,0.87,1.64,0.89L1.7,0.95L0.71,1.48C0.69,1.49,0.68,1.51,0.68,1.53c0.01,0.08,0.06,0.81-0.23,1.19
	C0.43,2.75,0.44,2.78,0.46,2.8L0.6,2.93c0.01,0.01,0.02,0.01,0.04,0.01c0.01,0,0.03,0,0.04-0.01c0.36-0.32,1.11-0.34,1.19-0.35
	c0.02,0,0.04-0.01,0.05-0.03l0.44-1.02l0.06,0.06l0,0C2.43,1.59,2.45,1.6,2.46,1.6c0.01,0,0.03,0,0.04-0.01l0.38-0.34
	c0.01-0.01,0.02-0.03,0.02-0.04C2.89,1.19,2.89,1.18,2.88,1.17z M1.84,2.49C1.69,2.5,1.01,2.54,0.64,2.84L0.62,2.83l0.59-0.64
	c0.03,0.02,0.07,0.03,0.1,0.03c0,0,0.01,0,0.01,0c0.05,0,0.11-0.03,0.14-0.07C1.51,2.11,1.53,2.05,1.52,2
	c0-0.05-0.03-0.11-0.07-0.14C1.41,1.82,1.36,1.8,1.31,1.8c-0.05,0-0.11,0.03-0.14,0.07C1.13,1.91,1.11,1.96,1.11,2.02
	c0,0.04,0.01,0.07,0.04,0.11L0.56,2.76L0.54,2.75c0.27-0.39,0.24-1.05,0.23-1.2l1-0.53l0.51,0.45L1.84,2.49z M1.2,2.01
	c0-0.03,0.01-0.06,0.03-0.08C1.25,1.91,1.28,1.9,1.31,1.89c0,0,0,0,0.01,0c0.03,0,0.06,0.01,0.08,0.03C1.42,1.94,1.43,1.97,1.43,2
	c0,0.03-0.01,0.06-0.03,0.08h0C1.38,2.11,1.35,2.12,1.32,2.12c-0.03,0-0.06-0.01-0.08-0.03C1.22,2.07,1.2,2.05,1.2,2.01z M2.46,1.5
	L1.72,0.85L1.98,0.5l0.8,0.71L2.46,1.5z"/>
</svg>
